<svg width="32" xmlns="http://www.w3.org/2000/svg" height="32" fill="none"><g data-testid="ContentLib"><defs><linearGradient id="a" x1=".556" y1="-.025" x2=".408" y2="1.031"><stop offset="0" stop-color="#255584"/><stop offset="1" stop-color="#332f75"/></linearGradient><clipPath id="b" class="frame-clip frame-clip-def"><rect rx="2" ry="2" width="32" height="32"/></clipPath><pattern patternUnits="userSpaceOnUse" x="0" y="0" width="32" height="32" id="c"><rect width="32" height="32" style="fill: url(&quot;#a&quot;);"/></pattern></defs><g clip-path="url(#b)"><g class="fills"><rect width="32" height="32" class="frame-background" ry="2" fill="url(#c)" rx="2"/></g><g class="frame-children"><g data-testid="C-letter" filter="url(#d)"><defs><filter id="d" x="-2.143" y="-2.172" width="5.286" height="6.214" filterUnits="objectBoundingBox" color-interpolation-filters="sRGB"><feFlood flood-opacity="0" result="BackgroundImageFix"/><feColorMatrix in="SourceAlpha" values="0 0 0 0 0 0 0 0 0 0 0 0 0 0 0 0 0 0 127 0"/><feOffset dy="6"/><feGaussianBlur stdDeviation="5"/><feColorMatrix values="0 0 0 0 0.1607843137254902 0 0 0 0 0.2196078431372549 0 0 0 0 0.4392156862745098 0 0 0 1 0"/><feBlend in2="BackgroundImageFix" result="filter_f4711863-f104-8026-8004-d1850ef22132"/><feBlend in="SourceGraphic" in2="filter_f4711863-f104-8026-8004-d1850ef22132" result="shape"/></filter></defs><rect rx="1" ry="1" x="3.157" y="5.757" transform="rotate(45 5.657 11.257)" width="5" height="11" style="fill: rgb(124, 191, 255); fill-opacity: 1;" class="fills" data-testid="Rectangle"/><path d="M16 6a1 1 0 0 1 1 1v3a1 1 0 0 1-1 1H8a1 1 0 0 1-1-1V7a1 1 0 0 1 1-1h8Z" style="fill: rgb(124, 191, 255); fill-opacity: 1;" class="fills" data-testid="Rectangle"/><rect rx="1" ry="1" x="9.5" y="18.5" transform="rotate(90 12 23.5)" width="5" height="10" style="fill: rgb(124, 191, 255); fill-opacity: 1;" class="fills" data-testid="Rectangle"/><rect rx="1" ry="1" x="-4" y="11" transform="rotate(90 1 16)" width="10" height="10" style="fill: rgb(124, 191, 255); fill-opacity: 1;" class="fills" data-testid="Rectangle"/><rect rx="1" ry="1" x="2" y="11" width="5" height="10" style="fill: rgb(124, 191, 255); fill-opacity: 1;" class="fills" data-testid="Rectangle"/><rect rx="1" ry="1" x="3.157" y="15.157" transform="rotate(-45 5.657 20.657)" width="5" height="11" style="fill: rgb(124, 191, 255); fill-opacity: 1;" class="fills" data-testid="Rectangle"/></g><g data-testid="L-letter" filter="url(#e)"><defs><filter id="e" x="-2.748" y="-2.25" width="6.496" height="6.4" filterUnits="objectBoundingBox" color-interpolation-filters="sRGB"><feFlood flood-opacity="0" result="BackgroundImageFix"/><feColorMatrix in="SourceAlpha" values="0 0 0 0 0 0 0 0 0 0 0 0 0 0 0 0 0 0 127 0"/><feOffset dy="6"/><feGaussianBlur stdDeviation="5"/><feColorMatrix values="0 0 0 0 0.1607843137254902 0 0 0 0 0.2196078431372549 0 0 0 0 0.4392156862745098 0 0 0 1 0"/><feBlend in2="BackgroundImageFix" result="filter_f4711863-f104-8026-8004-d1850ef22132"/><feBlend in="SourceGraphic" in2="filter_f4711863-f104-8026-8004-d1850ef22132" result="shape"/></filter></defs><rect rx="1" ry="1" x="25.688" y="15.313" transform="rotate(90 28.188 23.5)" width="5" height="16.375" style="fill: rgb(124, 191, 255); fill-opacity: 1;" class="fills" data-testid="Rectangle"/><rect rx="1" ry="1" x="20" y="6" width="5" height="17" style="fill: rgb(124, 191, 255); fill-opacity: 1;" class="fills" data-testid="Rectangle"/></g></g></g></g></svg>